<svg id="SvgjsSvg1024" width="288" height="288" xmlns="http://www.w3.org/2000/svg" version="1.1" xmlns:xlink="http://www.w3.org/1999/xlink" xmlns:svgjs="http://svgjs.com/svgjs"><defs id="SvgjsDefs1025"></defs><g id="SvgjsG1026"><svg xmlns="http://www.w3.org/2000/svg" viewBox="0 0 720 720" width="288" height="288"><path fill="#CCE9FF" fill-rule="evenodd" d="M280.08 198.72s-59.753 8.404-107.76 45.36c0 0-17.681 10.335-13.92 58.32 0 0 94.202-37.723 128.88-56.16l-7.2-47.52z" clip-rule="evenodd" class="svgShape colorcce9ff-1 selectable"></path><path fill="#2A94F4" fill-rule="evenodd" d="M230.722 244.1c-30.065 10.82-50.585 16.627-57.494 38.063-6.908 21.437 95.572-31.468 95.572-31.468s-8.013-17.415-38.078-6.595z" clip-rule="evenodd" class="svgShape color2a94f4-2 selectable"></path><path fill="#B5D5EA" fill-rule="evenodd" d="M288.96 242.64s-127.369 30.967-153.84 77.04c0 0 138.24-25.777 157.68-54.48l-3.84-22.56z" clip-rule="evenodd" class="svgShape colorb5d5ea-3 selectable"></path><path fill="#CCE9FF" fill-rule="evenodd" d="M293.76 263.76s-182.348 49.845-192 75.36c0 0-4.406 17.948-.48 30.48 3.926 12.533 207.12-56.64 207.12-56.64l-14.64-49.2z" clip-rule="evenodd" class="svgShape colorcce9ff-4 selectable"></path><path fill="#2A94F4" fill-rule="evenodd" d="M195.089 315.454c-38.303 13.774-64.446 21.167-73.247 48.456C113.04 391.2 243.6 323.85 243.6 323.85s-10.208-22.17-48.511-8.396zm70.471-18.814c-5.633 0-10.2 4.567-10.2 10.2 0 5.633 4.567 10.2 10.2 10.2s10.2-4.567 10.2-10.2c0-5.633-4.567-10.2-10.2-10.2z" clip-rule="evenodd" class="svgShape color2a94f4-5 selectable"></path><path fill="#F2F2F2" fill-rule="evenodd" d="M420.486 205.048c-61.475-32.008-149.046-3.928-149.046-3.928l33.36 104.16 141.12-16.56-25.434-83.672z" clip-rule="evenodd" class="svgShape colorf2f2f2-6 selectable"></path><path fill="#2A94F4" fill-rule="evenodd" d="M342.796 275.634c-19.516 3.757-17.648 19.326-17.648 19.326l106.132-19.317c-9.494-20.763-68.968-3.766-88.484-.009z" clip-rule="evenodd" class="svgShape color2a94f4-7 selectable"></path><path fill="#F7F7F7" fill-rule="evenodd" d="m78.48 365.52.96 112.08s241.997-13.416 467.28 20.88c0 0 73.665-188.175 117.36-259.2-214.909 3.15-503.31 97.943-585.6 126.24z" clip-rule="evenodd" class="svgShape colorf7f7f7-8 selectable"></path><path fill="#2A94F4" fill-rule="evenodd" d="M326.047 225.35c-19.765 2.083-19.228 17.755-19.228 17.755l107.391-10.218c-7.694-21.496-68.399-9.62-88.163-7.537zm183.818 57.173c-95.264 23.771-372.489 90.608-431.324 104.696-.061 1.148.088 5.181.088 5.181l433.778-99.207s85.046-19.948 125.411-4.494c5.152-9.763 8.337-15.95 9.941-19.609-26.595-2.59-73.281-2.69-137.894 13.433z" clip-rule="evenodd" class="svgShape color2a94f4-9 selectable"></path><path fill="#CCE9FF" fill-rule="evenodd" d="M428.4 231.36s-72.378 3.378-143.04 12.48l6.24 20.4s73.395-11.112 142.32-14.64l-5.52-18.24z" clip-rule="evenodd" class="svgShape colorcce9ff-10 selectable"></path><path fill="#0B4870" fill-rule="evenodd" d="M576.036 382.885c-23.303 22.419-54.424 51.359-82.309 30.939-27.885-20.42-37.93-13.577-56.632 1.679-18.702 15.256-46.814 40.22-78.709 17.508s-44.212 1.795-69.591 19.667c-25.378 17.872-43.153 11.836-74.39-11.752-31.237-23.589-43.191 7.015-77.509 21.825-34.318 14.811-24.268-9.767-45.114-19.667-20.846-9.9-49.673 28.781-49.673 28.781-14.269 23.89-5.999 38.374-5.999 38.374h529.608s40.584-71.605 46.554-115.603c5.968-43.996-12.933-34.17-36.236-11.751z" clip-rule="evenodd" class="svgShape color0b4870-11 selectable"></path><circle cx="475.984" cy="337.336" r="20.76" fill="#CCE9FF" fill-rule="evenodd" clip-rule="evenodd" class="svgShape colorcce9ff-12 selectable"></circle><path fill="#2A94F4" fill-rule="evenodd" d="M358.779 351.643a8.76 8.76 0 0 0-10.325 6.846 8.76 8.76 0 0 0 6.846 10.325 8.76 8.76 0 0 0 10.325-6.846 8.76 8.76 0 0 0-6.846-10.325zm-36.922 8.914a7.8 7.8 0 1 0 6.095 9.193 7.798 7.798 0 0 0-6.095-9.193zm-38.021 9.552a6.827 6.827 0 1 0-2.711 13.383 6.827 6.827 0 0 0 2.711-13.383zm-37.419 9.479a5.727 5.727 0 1 0-2.273 11.225 5.727 5.727 0 0 0 2.273-11.225zm-33.589 6.9a5.175 5.175 0 0 0-6.1 4.045 5.175 5.175 0 0 0 4.045 6.1 5.176 5.176 0 0 0 2.055-10.145zm-34.593 8.075a4.405 4.405 0 1 0-1.75 8.635 4.405 4.405 0 0 0 1.75-8.635zm-30.797 7.091a3.413 3.413 0 1 0-1.356 6.69 3.413 3.413 0 0 0 1.356-6.69z" clip-rule="evenodd" class="svgShape color2a94f4-13 selectable"></path></svg></g></svg>